Coordinates
version=1
nRows=4
nColumns=107
inDegrees=yes

Units are S.I. units (second, meters, Newtons, ...)
If the header above contains a line with 'inDegrees', this indicates whether rotational values are in degrees (yes) or radians (no).

endheader
time	sternoclavicular_r2	sternoclavicular_r3	unrotscap_r3	unrotscap_r2	acromioclavicular_r2	acromioclavicular_r3	acromioclavicular_r1	unrothum_r1	unrothum_r3	unrothum_r2	elv_angle	shoulder_elv	shoulder1_r2	shoulder_rot	elbow_flexion	pro_sup	deviation	flexion	proximal_distal_r1	proximal_distal_r3	cmc_flexion	cmc_abduction	mp_flexion	ip_flexion	mcp2_flexion	mcp2_abduction	pm2_flexion	md2_flexion	mcp3_flexion	mcp3_abduction	pm3_flexion	md3_flexion	mcp4_flexion	mcp4_abduction	pm4_flexion	md4_flexion	mcp5_flexion	mcp5_abduction	pm5_flexion	md5_flexion	bicpt_tx	bicpt_ty	bicpt_tz	bicpt2_tx	bicpt2_ty	bicpt2_tz	ptpt_tx	ptpt_ty	ptpt_tz	FCUpt_tx	FCUpt_ty	FCUpt_tz	EDCpt_tx	EDCpt_ty	EDCpt_tz	APLpt_tx	APLpt_ty	APLpt_tz	FPLpt_tx	FPLpt_ty	FPLpt_tz	FPLpt2_tx	FPLpt2_ty	FPLpt2_tz	PEC1pt2_tx	PEC1pt2_ty	PEC1pt2_tz	PEC1pt3_tx	PEC1pt3_ty	PEC1pt3_tz	PEC2pt2_tx	PEC2pt2_ty	PEC2pt2_tz	PEC2pt3_tx	PEC2pt3_ty	PEC2pt3_tz	PEC3pt2_tx	PEC3pt2_ty	PEC3pt2_tz	PEC3pt3_tx	PEC3pt3_ty	PEC3pt3_tz	DELT2pt2a_tx	DELT2pt2a_ty	DELT2pt2a_tz	DELT2pt2_tx	DELT2pt2_ty	DELT2pt2_tz	LAT1pt2_tx	LAT1pt2_ty	LAT1pt2_tz	LAT1pt3_tx	LAT1pt3_ty	LAT1pt3_tz	LAT2pt2_tx	LAT2pt2_ty	LAT2pt2_tz	LAT2pt3_tx	LAT2pt3_ty	LAT2pt3_tz	LAT3pt2_tx	LAT3pt2_ty	LAT3pt2_tz	LAT3pt3_tx	LAT3pt3_ty	LAT3pt3_tz
      1.06666667	     -0.32667070	      0.13836229	     -0.13836229	      0.32667070	     -0.06614417	      0.53455393	      0.24027831	     -0.24027831	     -0.53455393	      0.06614417	     98.19805648	     77.34219194	     -1.71387940	    -19.20122476	     28.52592314	     41.94904776	      0.20282670	     -0.98849537	      0.24159222	     -0.49424768	     10.64379753	     -4.15970096	    -31.34452390	    -57.30104643	     76.47956753	     12.99125550	     86.30951803	     88.48714266	     91.25593824	      1.91101416	     80.57273205	     59.36354789	     95.63099644	    -12.86520745	     85.51023012	     50.96579792	    105.38986241	    -14.01190464	     74.91670974	      5.75244689	      0.00084355	     -0.03086951	     -0.00482663	      0.01657370	     -0.01794921	     -0.00725930	      0.00445044	     -0.06690423	     -0.00342922	      0.00797705	     -0.18345398	     -0.00039883	     -0.00503387	      0.00146011	      0.00013140	      0.00019308	      0.00007723	      0.00038615	      0.00024714	      0.00074142	      0.00041705	      0.00003183	     -0.00020316	     -0.00024379	      0.00253511	      0.00889436	      0.00618738	     -0.00829281	      0.02002305	     -0.01899182	      0.00253511	      0.00889436	      0.00618738	      0.00055858	      0.01856214	     -0.00975372	      0.00399217	      0.00494604	      0.01607476	      0.00000000	      0.00800161	      0.00000000	     -0.00726158	     -0.03355795	     -0.00659891	      0.01331105	     -0.00040753	     -0.00302597	     -0.00090233	      0.01512471	     -0.00618738	      0.00249214	      0.02182770	     -0.01804653	     -0.00605848	      0.01310522	     -0.00554286	     -0.01263257	      0.02767134	     -0.03097987	     -0.02371829	      0.01465206	     -0.00743345	     -0.01572626	      0.03196813	     -0.03871410
      1.10000000	     -0.32771205	      0.13880336	     -0.13880336	      0.32771205	     -0.06635502	      0.53625796	      0.24104426	     -0.24104426	     -0.53625796	      0.06635502	     98.01174705	     77.58874026	     -1.71062769	    -17.99572192	     28.43061462	     40.70508457	      0.20696336	     -0.99224827	      0.24581933	     -0.49612413	     10.80364130	     -4.11926533	    -31.52649367	    -57.35928566	     76.76805409	     13.00235254	     86.28446121	     88.98146026	     91.34583535	      1.89430751	     80.56452436	     59.00222115	     95.65101486	    -12.86812526	     85.72807934	     50.72763817	    105.44433984	    -14.02240065	     74.97462145	      5.74480068	      0.00084040	     -0.03085858	     -0.00482487	      0.01657516	     -0.01792332	     -0.00739442	      0.00454235	     -0.06684479	     -0.00332901	      0.00785130	     -0.18348033	     -0.00039124	     -0.00488460	      0.00140900	      0.00014123	      0.00019069	      0.00007628	      0.00038139	      0.00024409	      0.00073226	      0.00041190	      0.00003161	     -0.00020526	     -0.00024631	      0.00254319	      0.00892271	      0.00620710	     -0.00831924	      0.02008688	     -0.01905236	      0.00254319	      0.00892271	      0.00620710	      0.00056036	      0.01862131	     -0.00978481	      0.00400139	      0.00496181	      0.01609681	      0.00000000	      0.00805309	      0.00000000	     -0.00728473	     -0.03366492	     -0.00664163	      0.01259283	     -0.00037119	     -0.00263461	     -0.00090520	      0.01517292	     -0.00620710	      0.00250008	      0.02189729	     -0.01810405	     -0.00607779	      0.01314699	     -0.00556053	     -0.01267284	      0.02775955	     -0.03107863	     -0.02379390	      0.01469877	     -0.00745715	     -0.01577639	      0.03207004	     -0.03883751
      1.13333333	     -0.32776230	      0.13882464	     -0.13882464	      0.32776230	     -0.06636520	      0.53634019	      0.24108122	     -0.24108122	     -0.53634019	      0.06636520	     98.02060517	     77.60063773	     -1.71078230	    -17.99599098	     28.44200691	     40.70427575	      0.20697051	     -0.99226157	      0.24582590	     -0.49613078	     10.80396276	     -4.11938999	    -31.52633997	    -57.35926241	     76.76865408	     13.00242023	     86.28463248	     88.98158037	     91.34662047	      1.89453309	     80.56471709	     59.00227573	     95.65163082	    -12.86806070	     85.72850805	     50.72774503	    105.44510069	    -14.02238561	     74.97488771	      5.74482412	      0.00084077	     -0.03085989	     -0.00482508	      0.01657516	     -0.01792641	     -0.00739450	      0.00454241	     -0.06684476	     -0.00332895	      0.00785122	     -0.18348034	     -0.00039123	     -0.00488450	      0.00140897	      0.00014123	      0.00019068	      0.00007627	      0.00038136	      0.00024407	      0.00073222	      0.00041187	      0.00003160	     -0.00020525	     -0.00024630	      0.00254358	      0.00892408	      0.00620806	     -0.00832052	      0.02008996	     -0.01905528	      0.00254358	      0.00892408	      0.00620806	      0.00056045	      0.01862417	     -0.00978631	      0.00400183	      0.00496257	      0.01609787	      0.00000000	      0.00805557	      0.00000000	     -0.00728584	     -0.03367008	     -0.00664369	      0.01259298	     -0.00037120	     -0.00263472	     -0.00090534	      0.01517525	     -0.00620806	      0.00250047	      0.02190064	     -0.01810683	     -0.00607872	      0.01314901	     -0.00556138	     -0.01267478	      0.02776381	     -0.03108339	     -0.02379755	      0.01470102	     -0.00745829	     -0.01577881	      0.03207496	     -0.03884346
      1.16666667	     -0.32972527	      0.13965606	     -0.13965606	      0.32972527	     -0.06676266	      0.53955233	      0.24252506	     -0.24252506	     -0.53955233	      0.06676266	     97.64198380	     78.06538832	     -1.70417411	    -15.74258119	     28.35733242	     38.23469995	      0.21235697	     -1.00949859	      0.25128758	     -0.50474930	     10.68582639	     -4.05369734	    -31.20217568	    -57.04019979	     77.09974627	     13.01241505	     86.29319301	     89.60291205	     91.42783991	      2.03931718	     80.55249003	     59.58590422	     95.81556796	    -12.84626587	     85.61013453	     51.35151262	    105.56024064	    -14.01532994	     75.10598582	      5.75676543	      0.00083797	     -0.03085018	     -0.00482352	      0.01656757	     -0.01790341	     -0.00765631	      0.00472489	     -0.06672676	     -0.00313001	      0.00760299	     -0.18353135	     -0.00037272	     -0.00458815	      0.00130891	      0.00015825	      0.00017942	      0.00007177	      0.00035884	      0.00022966	      0.00068898	      0.00038755	      0.00003177	     -0.00020371	     -0.00024445	      0.00255881	      0.00897753	      0.00624524	     -0.00837035	      0.02021028	     -0.01916941	      0.00255881	      0.00897753	      0.00624524	      0.00056381	      0.01873571	     -0.00984492	      0.00401914	      0.00499229	      0.01613905	      0.00000000	      0.00815308	      0.00000000	     -0.00732948	     -0.03387173	     -0.00672460	      0.01119836	     -0.00030492	     -0.00196800	     -0.00091076	      0.01526613	     -0.00624524	      0.00251544	      0.02203181	     -0.01821527	     -0.00611513	      0.01322776	     -0.00559469	     -0.01275069	      0.02793008	     -0.03126955	     -0.02394007	      0.01478907	     -0.00750296	     -0.01587331	      0.03226705	     -0.03907610
